<?xml version="1.0" standalone="no"?>
<!DOCTYPE svg PUBLIC "-//W3C//DTD SVG 20010904//EN"
 "http://www.w3.org/TR/2001/REC-SVG-20010904/DTD/svg10.dtd">
<svg version="1.0" xmlns="http://www.w3.org/2000/svg"
 width="241.000000pt" height="241.000000pt" viewBox="0 0 241.000000 241.000000"
 preserveAspectRatio="xMidYMid meet">
<metadata>
Created by potrace 1.14, written by Peter Selinger 2001-2017
</metadata>
<g transform="translate(0.000000,241.000000) scale(0.100000,-0.100000)"
fill="#000000" stroke="none">
<path d="M1543 2399 c-12 -4 -25 -14 -30 -22 -4 -7 -17 -17 -27 -20 -10 -4
-16 -10 -13 -13 3 -3 -6 -32 -18 -65 -13 -33 -29 -85 -35 -117 -11 -55 -52
-113 -64 -93 -10 16 -66 19 -66 4 0 -8 -5 -11 -10 -8 -6 4 -8 10 -5 15 2 4
-11 7 -30 7 -19 -1 -35 -6 -35 -12 0 -5 -4 -4 -9 3 -6 11 -11 10 -25 -3 -9 -9
-16 -13 -16 -8 -1 13 -39 -70 -40 -85 0 -7 4 -11 9 -8 5 3 11 -3 14 -14 4 -16
11 -20 31 -16 14 3 26 0 26 -5 0 -6 5 -7 10 -4 6 3 15 3 22 -1 7 -4 25 -8 40
-9 38 -2 61 -23 45 -41 -30 -33 -35 -42 -30 -48 4 -3 1 -6 -6 -6 -9 0 -38 -50
-46 -80 -1 -3 -7 -25 -14 -49 -10 -35 -10 -49 -1 -67 16 -29 54 -24 125 19 11
7 46 27 78 45 31 19 62 42 68 53 5 11 14 17 20 14 5 -4 9 -1 9 4 0 6 5 11 10
11 6 0 2 -12 -9 -27 -22 -32 -38 -88 -21 -78 5 3 10 2 10 -3 0 -6 -7 -13 -16
-16 -9 -4 -14 -9 -11 -13 4 -3 1 -13 -5 -21 -10 -11 -8 -17 7 -29 19 -14 19
-15 -5 -8 -14 4 -22 4 -18 0 4 -5 3 -14 -4 -22 -8 -10 -7 -17 8 -29 18 -15 18
-15 -4 -11 -19 4 -21 2 -18 -19 3 -13 -2 -31 -10 -39 -8 -8 -14 -23 -12 -32 2
-12 -2 -17 -12 -15 -12 3 -12 1 -3 -9 9 -9 8 -18 -5 -37 -14 -21 -14 -24 -2
-17 12 7 13 6 3 -7 -7 -8 -9 -18 -5 -22 4 -4 0 -6 -7 -4 -10 2 -20 -11 -28
-37 -8 -22 -20 -46 -28 -54 -10 -10 -11 -21 -4 -39 8 -22 8 -23 -6 -12 -13 11
-15 10 -10 -2 3 -8 -6 -25 -20 -38 -14 -13 -25 -31 -25 -40 0 -9 -5 -21 -12
-28 -7 -7 -9 -12 -5 -12 4 0 -4 -12 -18 -27 -14 -15 -25 -32 -25 -36 0 -5 -6
-15 -12 -22 -40 -44 -40 -45 -26 -63 12 -15 11 -16 -4 -4 -18 15 -34 0 -22
-20 5 -7 2 -9 -8 -6 -11 5 -19 -4 -28 -33 -8 -22 -26 -52 -41 -67 -15 -15 -37
-46 -49 -69 -12 -24 -26 -43 -31 -43 -5 0 -9 -6 -9 -13 0 -8 -11 -19 -24 -27
-14 -7 -27 -23 -31 -37 -3 -13 -10 -21 -15 -18 -6 3 -10 0 -10 -8 0 -8 -6 -20
-14 -27 -8 -6 -13 -17 -10 -25 3 -7 -3 -16 -14 -19 -11 -4 -28 -19 -38 -34
-19 -31 -29 -42 -79 -93 -19 -20 -35 -41 -35 -48 0 -7 -4 -10 -9 -7 -5 3 -14
-8 -21 -24 -7 -17 -19 -30 -27 -30 -13 0 -13 -3 -3 -16 8 -8 9 -14 4 -13 -5 1
-22 -3 -37 -9 -16 -7 -33 -12 -39 -12 -6 0 -8 -3 -5 -7 4 -3 -7 -14 -23 -24
-17 -11 -30 -23 -30 -29 0 -5 -4 -10 -10 -10 -12 0 -50 -32 -50 -42 0 -5 7 -8
16 -8 8 0 13 4 10 8 -3 5 1 9 8 9 11 0 12 -4 3 -18 -10 -16 -14 -17 -33 -4
-18 12 -23 11 -37 -6 -20 -22 -22 -33 -5 -23 8 5 9 2 5 -9 -4 -10 -10 -23 -13
-31 -4 -11 1 -15 18 -14 26 2 50 17 44 27 -3 4 -1 13 5 21 5 9 9 10 9 3 0 -6
27 15 60 48 33 32 60 62 60 65 0 8 27 34 37 34 11 0 45 37 69 75 10 16 39 50
64 76 64 67 71 76 64 93 -3 9 -1 16 6 16 6 0 8 -4 5 -10 -3 -5 -2 -10 3 -10
14 0 52 76 44 86 -4 4 -1 4 6 0 7 -4 15 0 19 11 4 10 26 38 50 62 24 24 43 49
43 56 0 6 14 24 30 40 17 16 30 35 30 43 0 7 6 20 13 27 29 33 33 41 29 53 -2
7 2 10 10 7 9 -4 23 12 40 44 14 28 29 47 33 43 5 -4 5 1 2 10 -4 12 -2 15 9
11 7 -3 14 0 14 7 0 6 14 29 31 50 19 23 29 45 26 54 -4 9 -2 16 3 16 5 0 7 7
4 15 -4 9 3 19 20 26 21 10 25 17 20 38 -4 18 -3 22 4 12 5 -7 15 -10 22 -6 9
6 9 9 -1 16 -11 7 -10 9 3 9 9 0 20 5 24 12 4 7 3 8 -4 4 -21 -13 -13 10 13
38 30 32 31 43 8 49 -16 4 -16 5 -1 6 14 1 24 16 33 51 1 3 4 12 8 20 11 28
37 123 37 137 0 8 -5 11 -12 7 -7 -4 -8 -3 -4 5 4 6 11 9 16 6 12 -7 28 17 25
38 -2 9 1 17 7 17 5 0 8 6 5 13 -2 6 0 20 5 31 6 11 6 16 1 13 -5 -4 -10 0
-10 7 0 8 6 12 13 9 8 -3 11 2 10 14 -2 10 1 20 5 24 14 8 29 100 15 92 -6 -3
-5 0 2 8 6 7 12 20 12 29 0 9 6 23 13 31 6 8 11 13 10 10 -4 -7 52 -59 59 -54
4 2 5 -3 2 -11 -4 -9 -1 -16 6 -16 7 0 10 -7 6 -15 -3 -8 0 -15 7 -15 17 -1
57 -36 57 -50 0 -6 4 -9 9 -5 5 3 12 1 16 -5 3 -5 19 -10 34 -10 51 0 70 91
33 149 -13 18 -13 23 -3 17 10 -7 12 -6 6 5 -5 7 -10 22 -11 34 -1 11 -9 33
-17 49 -14 26 -14 31 1 52 12 16 24 21 39 17 12 -2 28 -1 35 3 7 5 19 9 26 10
7 2 24 14 38 29 13 14 24 23 24 19 0 -4 9 3 20 16 23 27 25 36 8 43 -10 4 -10
6 0 6 6 1 12 6 12 12 0 5 -5 7 -12 3 -8 -5 -8 -3 -2 7 5 8 9 23 9 35 1 16 -5
20 -21 18 -14 -1 -21 2 -18 10 6 15 -73 13 -88 -2 -7 -7 -22 -12 -34 -12 -13
0 -30 -7 -38 -16 -9 -8 -20 -13 -25 -9 -6 3 -13 -1 -18 -8 -10 -18 -73 -51
-81 -43 -3 3 -12 0 -20 -7 -13 -10 -14 -9 -3 11 17 31 23 82 10 82 -6 0 -3 7
6 16 12 13 14 27 9 63 -8 55 -20 88 -37 105 -20 20 -70 34 -94 25z m447 -249
c0 -5 -2 -10 -4 -10 -3 0 -8 5 -11 10 -3 6 -1 10 4 10 6 0 11 -4 11 -10z
m-735 -90 c13 -6 15 -9 5 -9 -8 0 -22 4 -30 9 -18 12 -2 12 25 0z m-33 -17
c22 -19 24 -35 3 -27 -8 3 -13 11 -12 17 1 7 -6 11 -15 11 -10 -1 -18 2 -18 7
0 14 22 10 42 -8z m218 -4 c0 -6 -4 -7 -10 -4 -5 3 -10 11 -10 16 0 6 5 7 10
4 6 -3 10 -11 10 -16z m-157 -6 c-7 -2 -19 -2 -25 0 -7 3 -2 5 12 5 14 0 19
-2 13 -5z m27 -81 c0 -12 -3 -12 -15 -2 -8 7 -15 13 -15 15 0 1 7 2 15 2 8 0
15 -7 15 -15z m83 1 c-7 -2 -21 -2 -30 0 -10 3 -4 5 12 5 17 0 24 -2 18 -5z
m-49 -107 c-3 -9 -10 -16 -15 -16 -5 0 -4 9 3 20 14 22 21 20 12 -4z m196
-127 c0 -5 -4 -9 -8 -9 -5 0 -9 7 -9 15 0 8 4 12 9 9 4 -3 8 -9 8 -15z m-220
-33 c0 -11 -19 -15 -25 -6 -3 5 1 10 9 10 9 0 16 -2 16 -4z m-56 -36 c-6 -6
-10 -3 -10 10 0 13 4 16 10 10 7 -7 7 -13 0 -20z m136 -394 c0 -3 -4 -8 -10
-11 -5 -3 -10 -1 -10 4 0 6 5 11 10 11 6 0 10 -2 10 -4z m-30 -31 c0 -8 -2
-15 -4 -15 -2 0 -6 7 -10 15 -3 8 -1 15 4 15 6 0 10 -7 10 -15z m-116 -221 c3
-8 2 -12 -4 -9 -6 3 -10 10 -10 16 0 14 7 11 14 -7z"/>
</g>
</svg>
