<svg width="40" height="41" viewBox="0 0 40 41" fill="none" xmlns="http://www.w3.org/2000/svg">
<path d="M40 20.3545C40 9.30879 31.0457 0.354492 20 0.354492C8.9543 0.354492 0 9.30879 0 20.3545C0 30.3369 7.31367 38.6111 16.875 40.1115V26.1357H11.7969V20.3545H16.875V15.9482C16.875 10.9357 19.8609 8.16699 24.4293 8.16699C26.6176 8.16699 28.9062 8.55762 28.9062 8.55762V13.4795H26.3844C23.9 13.4795 23.125 15.0213 23.125 16.6029V20.3545H28.6719L27.7852 26.1357H23.125V40.1115C32.6863 38.6111 40 30.3373 40 20.3545Z" fill="#1877F2"/>
<path d="M27.7852 26.1357L28.6719 20.3545H23.125V16.6029C23.125 15.0213 23.9 13.4795 26.3844 13.4795H28.9062V8.55762C28.9062 8.55762 26.6176 8.16699 24.4293 8.16699C19.8609 8.16699 16.875 10.9357 16.875 15.9482V20.3545H11.7969V26.1357H16.875V40.1115C17.8934 40.2713 18.9367 40.3545 20 40.3545C21.0633 40.3545 22.1066 40.2713 23.125 40.1115V26.1357H27.7852Z" fill="white"/>
</svg>
