<svg width="40" height="41" viewBox="0 0 40 41" fill="none" xmlns="http://www.w3.org/2000/svg">
<rect y="0.354492" width="40" height="40" rx="20" fill="#FFE812"/>
<path d="M19.9999 9.37891C12.9953 9.37891 7.31702 13.8108 7.31702 19.2777C7.31702 22.8121 9.69092 25.9135 13.2619 27.6647C13.0676 28.3279 12.0135 31.9313 11.9715 32.2144C11.9715 32.2144 11.9463 32.4271 12.0854 32.5082C12.2246 32.5893 12.3882 32.5263 12.3882 32.5263C12.7873 32.4711 17.0154 29.5312 17.7473 29.0207C18.4784 29.1232 19.2312 29.1764 19.9999 29.1764C27.0046 29.1764 32.6829 24.7447 32.6829 19.2777C32.6829 13.8108 27.0046 9.37891 19.9999 9.37891Z" fill="black"/>
<path d="M13.0621 22.7936C12.6612 22.7936 12.3352 22.475 12.3352 22.0833V17.6648H11.2011C10.8077 17.6648 10.4878 17.338 10.4878 16.9365C10.4878 16.535 10.8078 16.2083 11.2011 16.2083H14.923C15.3164 16.2083 15.6363 16.535 15.6363 16.9365C15.6363 17.338 15.3163 17.6648 14.923 17.6648H13.7889V22.0833C13.7889 22.475 13.4629 22.7936 13.0621 22.7936ZM19.4355 22.7839C19.1325 22.7839 18.9006 22.658 18.8307 22.4555L18.4708 21.4913L16.2544 21.4912L15.8942 22.456C15.8246 22.6581 15.5928 22.7839 15.2897 22.7839C15.1303 22.7841 14.9727 22.7491 14.8277 22.6813C14.6273 22.5867 14.4347 22.3267 14.6554 21.6252L16.394 16.9425C16.5165 16.5863 16.8885 16.2194 17.362 16.2084C17.8367 16.2193 18.2087 16.5863 18.3315 16.9432L20.0694 21.6238C20.2906 22.3269 20.098 22.5871 19.8976 22.6814C19.7525 22.7491 19.595 22.7841 19.4355 22.7839ZM18.0886 20.1739L17.3626 18.0634L16.6366 20.1739H18.0886ZM21.2391 22.6852C20.855 22.6852 20.5425 22.3792 20.5425 22.0034V16.952C20.5425 16.5418 20.8754 16.2083 21.2845 16.2083C21.6936 16.2083 22.0265 16.5418 22.0265 16.952V21.3216H23.5711C23.9552 21.3216 24.2676 21.6275 24.2676 22.0034C24.2676 22.3792 23.9552 22.6852 23.5711 22.6852H21.2391ZM25.2772 22.7839C24.8764 22.7839 24.5504 22.4504 24.5504 22.0402V16.952C24.5504 16.5418 24.8764 16.2083 25.2772 16.2083C25.6781 16.2083 26.0041 16.5418 26.0041 16.952V18.5506L28.032 16.4755C28.1363 16.3688 28.2796 16.31 28.4352 16.31C28.6166 16.31 28.7988 16.3901 28.9353 16.5297C29.0627 16.6598 29.1386 16.8273 29.149 17.0012C29.1596 17.1766 29.1025 17.3374 28.9886 17.454L27.3323 19.1487L29.1214 21.5741C29.1792 21.6519 29.2213 21.7407 29.2452 21.8353C29.2692 21.9299 29.2745 22.0284 29.261 22.1251C29.248 22.2219 29.2164 22.3151 29.168 22.3993C29.1196 22.4835 29.0553 22.557 28.979 22.6156C28.8533 22.7134 28.6996 22.7661 28.5418 22.7657C28.4291 22.7663 28.318 22.7398 28.2171 22.6885C28.1163 22.6371 28.0286 22.5623 27.9611 22.4701L26.2565 20.159L26.0043 20.4171V22.0398C26.0041 22.2371 25.9274 22.4262 25.7911 22.5657C25.6548 22.7052 25.47 22.7837 25.2772 22.7839Z" fill="#FFE812"/>
</svg>
