<svg width="40" height="41" viewBox="0 0 40 41" fill="none" xmlns="http://www.w3.org/2000/svg">
<path d="M20 40.3545C31.0457 40.3545 40 31.4002 40 20.3545C40 9.3088 31.0457 0.354492 20 0.354492C8.9543 0.354492 0 9.3088 0 20.3545C0 31.4002 8.9543 40.3545 20 40.3545Z" fill="#4CC764"/>
<path d="M33.3375 19.1895C33.3375 13.2145 27.3475 8.35449 19.9863 8.35449C12.625 8.35449 6.63501 13.2157 6.63501 19.1895C6.63501 24.5457 11.385 29.0307 17.8013 29.8795C18.2363 29.9732 18.8275 30.1657 18.9775 30.5382C19.1125 30.8757 19.065 31.4045 19.0213 31.7457C19.0213 31.7457 18.865 32.6882 18.8313 32.8882C18.7725 33.2257 18.5625 34.2082 19.9875 33.6082C21.4125 33.0082 27.6763 29.0807 30.4775 25.857C32.4125 23.7345 33.34 21.582 33.34 19.1907L33.3375 19.1895Z" fill="white"/>
<path d="M28.8963 22.6393C29.0375 22.6393 29.1513 22.5255 29.1513 22.3843V21.4368C29.1513 21.2968 29.0363 21.1818 28.8963 21.1818H26.3475V20.198H28.8963C29.0375 20.198 29.1513 20.0843 29.1513 19.943V18.9968C29.1513 18.8568 29.0363 18.7418 28.8963 18.7418H26.3475V17.758H28.8963C29.0375 17.758 29.1513 17.6443 29.1513 17.503V16.5568C29.1513 16.4168 29.0363 16.3018 28.8963 16.3018H25.145C25.0038 16.3018 24.89 16.4155 24.89 16.5568V16.5618V22.3793V22.3843C24.89 22.5255 25.0038 22.6393 25.145 22.6393H28.8963Z" fill="#4CC764"/>
<path d="M15.0213 22.6393C15.1625 22.6393 15.2763 22.5255 15.2763 22.3843V21.4368C15.2763 21.2968 15.1613 21.1818 15.0213 21.1818H12.4725V16.5568C12.4725 16.4168 12.3575 16.3018 12.2175 16.3018H11.27C11.1288 16.3018 11.015 16.4155 11.015 16.5568V22.3793V22.3843C11.015 22.5255 11.1288 22.6393 11.27 22.6393H15.0213Z" fill="#4CC764"/>
<path d="M17.2788 16.3018H16.3325C16.1917 16.3018 16.0775 16.4159 16.0775 16.5568V22.383C16.0775 22.5238 16.1917 22.638 16.3325 22.638H17.2788C17.4196 22.638 17.5338 22.5238 17.5338 22.383V16.5568C17.5338 16.4159 17.4196 16.3018 17.2788 16.3018Z" fill="#4CC764"/>
<path d="M23.7249 16.3018H22.7774C22.6362 16.3018 22.5224 16.4155 22.5224 16.5568V20.018L19.8562 16.418C19.8499 16.4093 19.8424 16.4005 19.8362 16.3918C19.8362 16.3918 19.8362 16.3918 19.8349 16.3905C19.8299 16.3855 19.8249 16.3793 19.8199 16.3743C19.8187 16.373 19.8162 16.3718 19.8149 16.3705C19.8099 16.3668 19.8062 16.363 19.8012 16.3593C19.7987 16.358 19.7962 16.3555 19.7937 16.3543C19.7899 16.3505 19.7849 16.348 19.7799 16.3455C19.7774 16.3443 19.7749 16.3418 19.7724 16.3405C19.7674 16.338 19.7637 16.3355 19.7587 16.333C19.7562 16.3318 19.7537 16.3305 19.7512 16.3293C19.7462 16.3268 19.7412 16.3243 19.7362 16.323C19.7337 16.323 19.7312 16.3205 19.7274 16.3205C19.7224 16.3193 19.7174 16.3168 19.7124 16.3155C19.7099 16.3155 19.7062 16.3143 19.7037 16.313C19.6987 16.313 19.6937 16.3105 19.6887 16.3093C19.6849 16.3093 19.6812 16.3093 19.6774 16.308C19.6724 16.308 19.6687 16.3068 19.6637 16.3068C19.6587 16.3068 19.6549 16.3068 19.6499 16.3068C19.6474 16.3068 19.6437 16.3068 19.6412 16.3068H18.6999C18.5587 16.3068 18.4449 16.4205 18.4449 16.5618V22.3893C18.4449 22.5305 18.5587 22.6443 18.6999 22.6443H19.6474C19.7887 22.6443 19.9024 22.5305 19.9024 22.3893V18.9293L22.5712 22.5343C22.5899 22.5605 22.6124 22.5818 22.6374 22.598C22.6374 22.598 22.6399 22.5993 22.6399 22.6005C22.6449 22.6043 22.6499 22.6068 22.6562 22.6105C22.6587 22.6118 22.6612 22.613 22.6637 22.6143C22.6674 22.6168 22.6724 22.618 22.6762 22.6205C22.6799 22.623 22.6849 22.6243 22.6887 22.6255C22.6912 22.6255 22.6937 22.628 22.6962 22.628C22.7024 22.6305 22.7074 22.6318 22.7137 22.633C22.7137 22.633 22.7162 22.633 22.7174 22.633C22.7387 22.638 22.7612 22.6418 22.7837 22.6418H23.7249C23.8662 22.6418 23.9799 22.528 23.9799 22.3868V16.5593C23.9799 16.418 23.8662 16.3043 23.7249 16.3043V16.3018Z" fill="#4CC764"/>
</svg>
