<svg width="40" height="32" viewBox="0 0 40 32" fill="none" xmlns="http://www.w3.org/2000/svg">
<path d="M37.1953 16.6931C40.9349 12.9535 40.9349 6.8974 37.1953 3.15785C33.886 -0.151494 28.6705 -0.581709 24.8647 2.13857L24.7588 2.21137C23.8057 2.8931 23.5873 4.21684 24.2691 5.16331C24.9508 6.10978 26.2745 6.33481 27.221 5.65309L27.3269 5.58028C29.4515 4.06461 32.3571 4.30288 34.1971 6.14949C36.282 8.23438 36.282 11.6099 34.1971 13.6948L26.7709 21.1342C24.686 23.2191 21.3105 23.2191 19.2256 21.1342C17.379 19.2876 17.1407 16.382 18.6564 14.264L18.7292 14.1581C19.4109 13.205 19.1859 11.8813 18.2394 11.2062C17.293 10.5311 15.9626 10.7495 15.2875 11.6959L15.2147 11.8018C12.4878 15.601 12.918 20.8165 16.2274 24.1258C19.9669 27.8654 26.023 27.8654 29.7626 24.1258L37.1953 16.6931ZM2.80467 15.1443C-0.934889 18.8838 -0.934889 24.9399 2.80467 28.6795C6.11401 31.9888 11.3295 32.419 15.1353 29.6988L15.2412 29.626C16.1943 28.9442 16.4127 27.6205 15.731 26.674C15.0492 25.7276 13.7255 25.5025 12.779 26.1842L12.6731 26.257C10.5485 27.7727 7.64292 27.5345 5.80293 25.6878C3.71804 23.5963 3.71804 20.2208 5.80293 18.1359L13.2291 10.7031C15.314 8.61826 18.6895 8.61826 20.7744 10.7031C22.621 12.5498 22.8593 15.4554 21.3436 17.58L21.2708 17.6859C20.5891 18.6389 20.8141 19.9627 21.7606 20.6378C22.707 21.3129 24.0374 21.0945 24.7125 20.148L24.7853 20.0421C27.5122 16.2364 27.082 11.0208 23.7726 7.7115C20.0331 3.97194 13.977 3.97194 10.2374 7.7115L2.80467 15.1443Z" fill="#2863A5"/>
</svg>
